<?xml version="1.0" encoding="UTF-8"?>
<svg width="754pt" height="838pt" version="1.1" viewBox="0 0 754 838" xmlns="http://www.w3.org/2000/svg">
 <path d="m319.33 0h13.32c30.83 2.13 64.54 1.51 91.56 18.8 35.73 22.5 63.23 55.42 87.64 89.35 14.48 19.98 37.64 42.56 64.54 32.26 21.77-12 45.82-20.65 70.91-21.37 3.91 4.95-8.52 5.51-6.13 10.92 14.74 1.53 30.15 3.34 42.69 12.01 2.47 1.56 8.21 4.71 5.31 8.43-7.07-0.74-20.26 1.77-13.24 11.56 23.67 27.26 42.22 60.14 45.53 96.78 3.07 18.32-6.31 35.74-16.56 50.19-11.04 18.82-18.81 39.3-26.18 59.77-6.12 12.71-15.32 26.14-11.81 41.03 3.02 17.12 20.86 24.55 30.03 37.48-1.78 6.28-14.92 0.96-16.24 8.72-1.59 10.64 5.41 19.77 9.27 29.05 9.02 18.34 6.72 39.24 10.02 58.83 8.94 34.57 43.21 55.07 54.01 88.74v10.8c-1.21 2.66-2.87 7.92-6.68 6.31-12.83-6-17.36-21.31-29.86-27.6-4.46-1.34-7.28 2.67-8.23 6.28-4.79 17.35-1.91 36.21-8.92 53.04-1.67 2.22-6.92 2.97-7.1-1.35-15.71-26.82-11.9-60.57-25.56-87.91-12.4-2.6-16.49 15.62-27.03 19.6 3.54-21.13 9.42-42.03 9.94-63.57 1.15-4.72-2.88-12.4-7.96-7.67-15.92 14.74-28.27 33.81-36.17 54.03-2.68 20.37-26.57 32.95-45.6 28.19-11.81-0.35-18.33 12.79-28.78 15.37-3.72-13.92 3.44-34.52-9.48-44.89-11.54 1.32-13.52 18.89-9.28 27.37 30.53 70.78 87.16 125.68 128.63 189.44-37.71 15.58-78.07 23.91-118.58 28.01h-66.68c-115.39-8.92-233.87-38.7-347.71-2.96 39.81-43.51 83.59-83.3 123.74-126.5-2.76-47.48-16.3-93.59-33.44-137.71-2.56-5.29-4.34-13.08-11.84-12.37-37.36-4.65-76.02 1.58-112.7-8.1-26.05-12.58-8.82-47.19-20.51-68.54-13.81-22.5-8.64-49.81-14.24-74.41-7.9-6.45-17.75-10.18-25.52-16.77-10.94-10.28-3.8-27.24 4.57-36.77 14.8-23.17 37.78-46.55 32.95-76.54-4.53-44.89-6.07-93.46 17.66-133.71 11.63-20.54 29.44-37.08 39.31-58.71 11.05-32.16 45.35-47.41 75.26-57.76 45.31-8.42 88.25-28.56 135.14-27.15m223.24 267.32c-10.19 9.42-9.8 24.97-13.61 37.64-7 35.24-24.28 67.44-46.97 95.03-18.32 21.62-23.18 50.75-19.29 78.21-1.12 17.96 25.19 16.78 34.07 7.44-0.83-8.65-12.26-8.16-18.73-9.51 10.93-21.59 35.01-30.91 53.32-44.81 9.04-6.13-8.94-7.35-3.34-14.13 9.02-11.22 13.32-25.24 14.79-39.38 3.99-32.49 19.12-64.53 11.16-97.7-1.06-5.48-4.41-14.41-11.4-12.79m-78.26 233.65c-8.53 10.62 3.59 30.81 16.63 23.1 15.56-9.27-5.94-22.84-16.63-23.1z"/>
</svg>
