<?xml version='1.0' encoding='utf-8'?>
<svg xmlns="http://www.w3.org/2000/svg" version="1.1" id="Layer_1" x="0px" y="0px" viewBox="0 0 1189.297 1675.261" enable-background="new 0 0 1189.297 1675.261"> <g> <path d="M99.953,763.88c9.443,0.244,14.177,8.472,20.351,14.125c2.251,2.061-1.032,3.708-0.222,5.616 c9.847,23.187-18.158,42.057,18.222,54.31c1.146,0.386,3.34,0.644,2.95,2.248c-1.665,6.839-7.877,27.134,1.311,32.935 c0.663,0.418,1.764,0.518,1.677,1.569c-0.668,8.116,12.613,8.172,15.173,9.541c30.027,16.055,3.984,56.425,30.068,88.183 c22.165,26.986,77.425,24.62,108.707,15.529c1.727-0.502,2.619-2.464,4.659-2.195c26.792,3.537,82.591-44.571,109.786,14.964 c11.424,25.008,61.512,82.399,92.542,194.379c32.115,115.894-22.361,101.184-33.372,140.795c0,0-21.914,30.767-21.917,30.769 c0,0-27.73,49.664-39.216,65.122c-8.716,11.731-40.116,61.709-40.114,62.535c0.009,3.219-2.285,4.781-4.847,6.04 c5.612,4.967-1.006,2.527-3.937,7.174c-2.423,3.841-4.191,8.713-7.65,11.116c-3.823,2.655-2.499,9.067-8.144,9.63 c-0.071,0.007-0.227,0.581-0.12,0.738c2.486,3.662-4.077,3.196-2.845,6.262c-12.887,10.536-84.116,41.779-90.088,50.345 c-8.143,11.679-41.7,30.969-53.147,52.019h939.143c-1.009-6.255-45.069-149.454-42.347-155.682c0,0-21.603-98.091-24.013-100.182 c1.909-6.245-2.066-11.277-3.623-16.765c-1.17-4.124-1.443-8.398-2.567-12.566c-4.835-17.933-26.258-56.31-27.084-56.792 c-4.943-2.883-6.894-8.342-9.821-12.714c-19.037-28.444-140.131-148.152-153.616-174.796c-3.698-7.307-8.625-14.166-14.002-20.539 c-8.227-9.75-3.163-12.703-1.743-18.382c4.144-16.565-7.517-11.154-7.099-21.991c0.363-9.417-10.91-22.844-22.567-16.166 c-2.247,1.288-3.78,0.295-4.262-2.45c-1.122-6.388-11.765-32.198-12.129-40.795c-1.064-25.117,18.255-50.706,18.899-41.155 c0.225,3.334,2.34,2.744,4.317,2.723c6.584-0.069,8.136,3.705,14.487,4.848c21.897,3.937,48.613-14.496,51.805-3.844 c0.551,1.84,6.083-0.325,16.148,1.005c6.077,0.803,12.23-2.389,18.578-2.03c1.39,0.079,7.144-4.516,11.508-13.116 c4.609-9.085,7.884-7.595,12.318-10.509c11.636-7.644,6.317-11.642,27.948-29.217c5.414-4.398,5.49-0.494,9.85-11.673 c0.731-1.875,19.548-24.563,15.79-27.51c-0.414-0.324-0.066-1.08,0.487-1.347c5.577-2.694,8.629-7.92,10.904-13.005 c3.372-7.537,9.077,3.871,13.5,0.535c6.816-5.139,2.787,8.219,9.496,4.704c5.965-3.126,2.779-14.491,0.964-11.915 c-3.601,5.112-3.584-3.87-7.747-1.653c-2.691,1.433-4.266-3.192-3.569-4.85c9.661-22.963-0.85-10.113,14.556-26.79 c2.501-2.707,9.521-5.412,5.578-11.308c-1.183-1.768-9.246,6.51-9.593-3.244c-0.302-8.5,4.862-9.155,6.726-12.648 c2.357-4.417,5.349-3.941,8.828-3.174c13.188,2.906,3.463,8.81,6.519,10.1c1.1,0.464,3.129,0.003,4.377-1.204 c5.295-5.125,2.746,11.098,11.419-8.46c-3.702,0.437-4.845,0.112-7.095-16.201c-2.895-20.997,5.043-22.666,8.256-30.76 c0.437-1.102,2.008-2.927,3.059-1.297c3.295,5.11,3.078-3.663,17.399-12.404c2.39-1.459-0.378-5.641-7.548-0.942 c-8.744,5.731,9.874-36.011,11.181-46.664c3.615-29.463-1.586-51.537,6.589-64.781c0.586-0.95,0.896-2.686,0.118-3.078 c-3.81-1.915-0.196-11.218-1.724-15.108c-4.363-11.103-11.319-29.465-21.762-35.206c-2.456-1.35-0.9-4.213-3.187-5.199 c-2.709-1.169-3.641-4.777-6.981-5.216c-0.361-0.047-0.949-0.868-0.889-1.242c0.628-3.885-0.932-7.449-1.416-11.162 c-2.739-21.027-13.964-17.785-15.343-22.531c-1.984-6.826,3.316-11.497-2.483-16.737c-2.992-2.703,2.867-2.819,0.599-4.734 c-8.767-7.401-3.213,10.209-14.101,10.07c-5.022-0.064-5.286-3.438-4.394-7.471c-7.201,4.072-6.58-2.053-7.91-3.313 c-5.802-5.498,6.284-5.275,6.024-9.008c-0.356-5.124,2.448-3.922,5.315-3.284c3.52,0.783,4.552-2.395,6.438-4.192 c1.516-1.445-1.114-1.878-0.766-3.047c-2.712,0.671-4.852-2.24-7.239-1.561c-2.933,0.835-5.33,3.096-8.901,2.17 c-1.179-0.306-3.029,0.888-4.042-0.577c-1.115-1.613-0.737-3.748,0.388-5.034c6.693-7.66,5.146-21.193,11.074-20.946 c9.645,0.403,15.959-13.817,21.115-1.828c0.031,0.071-0.135,0.227-0.276,0.449c-1.264,0.375-4.281-0.737-3.569,1.525 c0.72,2.289-0.467,4.104-0.186,6.289c5.978,0.009,2.373-7.583,9.446-9.654c2.034-0.596,2.101,2.886,3.496,4.306 c5.835,5.938-4.724,18.688-8.827,21.66c-4.255,3.083-0.819,4.993,2.238,3.432c9.461-4.832,8.68-6.477,12.053-5.387 c3.247,1.05,3.035,4.945,5.93,6.609c-1.101-5.7-3.308-11.769,1.323-17.605c6.006-7.568,9.271-28.003,3.88-31.459 c-3.965-2.543-11.342-14.987-18.943-16.176c-4.2-0.657-4.836-8.493-4.818-12.619c0.13-29.513-109.159-85.377-140.851-31.122 c-3.544,6.068-3.715,1.341-8.358,5.732c-9.31,8.803-18.539,23.928-21.633,22.965c-2.982-0.929-0.59-5.449-3.054-6.99 c-4.249-2.658-0.036-7.471-0.465-9.135c-1.126-4.373,1.2-7.848,4.443-9.709c4.924-2.824,1.329-4.602-0.183-6.613 c-1.778-2.364-4.101,2.263-5.462,1.417c-0.651-1.804-0.51-3.631-1.999-5.475c-4.122-5.105,0.489-6.255-0.442-10.294 c-3.771-16.367-6.139-22.956-11.74-27.739c-1.458-1.245-1.778-3.76-3.153-5.177c-3.217-3.315-5.754-6.808-5.404-12.579 c-2.075,2.641-3.534,1.797-4.464,0.01c-5.407-10.394-14.484-6.592-15.469-10.445c-0.705-2.759,2.715,0.282,2.587-2.672 c-0.043-1.004-0.383-1.113-1.515-1.105c-4.726,0.033-6.137-5.496-10.355-6.482c-0.088-0.021-0.184-0.229-0.188-0.353 c-0.166-6.605-18.877-27.54-1.482-43.08c2.413-2.156-0.158-3.757-1.627-2.596c-0.847,0.669-2.297,1.388-2.326,2.13 c-0.098,2.524-2.605,3.709-2.911,6.153c-0.521,4.161-6.75,1.466-4.852-2.054c2.946-5.462,4.241-16.996,2.145-17.558 c-7.264-1.948-4.175,5.255-8.38,2.118c-2.033-1.517-6.367-3.043-0.627-9.626c-2.627-1.912-7.365-1.554-5.566-7.135 c1.612-5.003-7.333-3.436-9.251-10.062c-0.289-1-0.578-2.769-1.697-2.504c-3.56,0.841-15.234-2.724-22.923-22.086 c-0.906-2.281,0.687-6.526-4.221-3.229c-0.078,0.052-0.454-0.253-0.63-0.447c-3.043-3.347-8.992-3.76-9.643-9.547 c-0.037-0.328-0.501-0.881-0.748-0.871c-4.911,0.199-7.894-3.328-11.063-6.098c-1.505-1.316-8.464-0.126-3.371-5.579 c0,0-5.14-3.346-5.82-8.2c-0.116-0.826-3.317,0.346-3.205-1.081c0.276-3.537-2.772-2.93-4.526-3.504 c-3.15-1.03-7.049-6.378-5.483-9.084c2.711-4.686-0.357-7.584-2.203-11.073c-3.091,2.118-0.557,4.916-10.239,1.801 c-1.678-0.54,1.52-1.927-0.12-2.853c-5.229,2.552-5.316,2.031-9.479-1.745c-9.04-8.2-44.418-23.035-45.677-22.875 c-13.779,1.758-15.584-13.674-18.955-6.613c-3.891,8.149-23.899-4.826-25.952-6.836c-8.695-8.511-13.301,1.869-18.1-5.889 c-1.598-2.583-5.747-1.229-7.613-3.935c0,0-3.032,2.215-3.899,1.411c-1.38-1.279,1.435-1.719,0.6-3.627 c-4.279,5.72-12.318-1.921-15.175-1.412c-5.179,0.923-0.317-2.172-1.788-5.022c-1.681,1.169-3.406,2.309-4.018-1.158 c-0.071-0.403-4.462,0.171-6.382-1.785c-0.204-0.208-0.318,1.023-0.537,1.213c-3.174,2.742-0.645,6.355-10.4,0.304 c-0.883,1.197,1.048,3.806-1.954,3.666c-7.771-0.364-20.83-1.315-21.122-1.305c-3.146,0.105-6.513,1.914-9.292-0.208 c0.124-2.394,3.933-3.34,1.181-6.205c-2.092-2.178-5.07-2.194-5.898-0.297c-1.954,4.476-6.402,5.609-9.603,8.158 c-10.621,8.46-5.087,1.22-18.792,5.375c-1.385,0.42-0.609,2.894-2.464,2.642c0-1.383,0.005-2.687-0.001-3.991 c-0.029-7.05-6.255-2.18-6.894-1.354c-2.467,3.191-6.506,4.577-8.873,7.822c-1.945,2.666-8.336-0.318-8.758,4.108 c-0.58,6.087-9.228,10.432-10.563,9.859c-2.139-0.917,4.534-8.206-0.655-9.174c-1.553-0.29-1.52,0.664-0.902,1.743 c0.187,0.327,0.411,0.806-0.176,0.892c-5.518,0.807-3.574,9.434-6.582,8.558c-1.338-0.389-3.687,0.076-3.895-2.13 c-0.456-4.831-4.998,1.421-6.993-0.674c-0.585-0.614-1.637,0.487-1.81,1.159c-0.969,3.766-4.635,5.17-6.721,7.932 c-0.488,0.647-1.062,1.038-1.646,0.342c-2.931-3.49-3.262,0.952-9.004,1.907c-2.824,0.47-5.96-0.185-8.084,2.91 c-1.966,2.865-9.526-1.922-9.716-4.795c-0.075-1.136-1.549-1.747-2.153-1.07c-1.353,1.514-3.449,1.291-4.857,2.745 c-4.117,4.253-8.499,8.164-15.096,7.825c-0.076-0.004-10.011,6.518-11.714,6.776c-18.553,2.815-17.655,1.73-22.81,4.36 c-11.997,6.122-10.149,2.201-16.211,6.96c-3.684,2.893-19.528,5.844-22.138,4.171c-0.509-0.326-1.319,0.276-1.666,0.932 c-6.826,12.936-15.564-7.229-24.63,7.125c-0.5,0.791-1.752,1.762-2.803,0.643c-1.042-1.109,0.86-1.688,0.835-1.992 c-0.116-1.369-0.873-7.395-2.898-4.425c-2.982,4.373,1.055,13.34-15.373,15.344c-2.308,0.281-4.061,2.664-6.502,1.567 c-4.518-2.03-8.998-2.357-13.162,0.003c-4.553,2.58-10.182,1.986-14.425,5.298c-4.723,3.687-9.602,1.868-13.522,6.466 c-4.824,5.659-11.639,9.03-16.49,14.636c-4.488,5.186-5.745-5.413-7.096-0.893c-1.25,4.18-4.7,6.83-6.292,10.769 c-9.528,23.573-7.272,9.706-16.089,27.428c-9.46,19.014-8.615,27.358-13.277,24.12c-2.16-1.5-2.9-0.266-1.992,1.867 c2.369,5.569-2.738,7.245-3.5,26.951c-0.844,21.825-8.209,22.842-16.715,42.085c-0.354,0.801-0.413,1.53-0.124,2.375 c6.348,18.554-3.367,21.392-12.811,57.359c-8.235,31.363-12.008,113.792-10.643,132.791c1.676,23.322-14.158,12.806,11.627,51.704 c9.084,13.704,8.303,29.298-3.339,40.52c-1.915,1.846-3.482,3.707-1.037,6.27c5.438,5.7-22.621,35.749-34.903,75.592 c-15.075,48.904-31.397,57.552-21.284,81.966C60.807,756.188,82.968,763.442,99.953,763.88z M953.66,397.948 c-0.673-0.827-0.318-5.324,2.549-6.656C958.981,390.004,957.719,395.496,953.66,397.948z M966.684,400.382 c-0.886-0.53,0.349-1.992,0.573-1.817c3.856,3.006,5.041-9.905,8.428-2.58c0.341,0.737,2.877-1.674,3.074,1.307 c0.146,2.212-1.157,6.514-4,6.553c-2.069,0.029-3.949,0.72-6.138,2.615C968.542,403.706,968.83,401.668,966.684,400.382z M984.337,443.287c-2.339,3.293,1.287,26.447-4.618,27.204c-1.815,0.233-6.959-1.989-6.019-3.147 c4.022-4.951-1.06-7.074-3.075-10.193c-4.665-7.219,7.353-28.155-3.127-24.352c3.373-3.025,6.408-3.319,8.314-5.489 c2.083-2.372,6.007,5.739,1.923,10.507c-0.847,0.989-1.536,2.115-2.081,3.39c5.824-2.041,4.107-5.275,7.087-3.787 c2.47,1.233-1.849,1.749,0.455,4.424C983.61,442.326,984.725,442.741,984.337,443.287z M1033.423,423.172 c1.708,5.171-16.198-1.598-18.44,7.65c-0.321,1.326-1.963,1.268-2.823,2.636c3.942,0,7.547-0.081,11.147,0.023 c3.465,0.101,6.713,1.815,10.47,0.602c1.533-0.495,2.488,4.514-5.984,14.368c-9.691,11.273-4.162,11.391-12.766,12.451 c-3.589,0.442-1.208-4.868-5.026-5.31c0.28,2.064,1.706,4.099-0.422,5.899c-2.631,2.225,5.883,1.441,1.871,6.427 c-6.317,7.852-10.365,1.393-18.355,3.784c-2.363,0.707-5.159-20.513,1.938-31.007c2.576-3.809-4.673-2.76-1.571-12.17 c0.863-2.619,6.627-4.442,8.427-0.781c0.485,0.987,0.035,2.598,2.039,2.48c2.327-0.137,0.561-2.425,2.359-3.39 c1.329,5.273,10.875-2.283,3.989-2.529c-0.877-0.031-2.165,0.689-2.446-0.675c-0.34-1.65,1.396-1.483,2.25-1.802 c12.822-4.788,12.549,3.451,18.658-0.995c2.694-1.96,2.589-2.105,6.201-1.101C1034.958,421.085,1032.855,421.451,1033.423,423.172z M1010.953,359.352c8.871-7.044,22.297-0.843,23.443,3.456c0.078,0.291,0.621,0.609,0.979,0.651 c6.663,0.779,23.02,14.74,15.803,26.345c-2.125,3.417-6.952-0.039-10.51,0.846c2.558,1.351,2.033,6.059,6.046,5.282 c2.397-0.464,3.49,1.215,5.197,1.983c14.444,6.499-44.185,8.578-45.038,8.538c-3.271-0.153-2.765-3.227-5.03-4.088 c-1.502-0.57,0.608-3.243,1.425-3.532c2.53-0.894,3.18-3.442,5.155-4.853c4.066-2.905,8.15-0.559,12.173-0.871 c6.429-0.496,5.898-3.196,8.172-0.801c0.312,0.328,2.597-0.353,2.799-0.96c1.208-3.614-16.977-2.846-16.979-9.717 c0-1.964-1.331-1.391-2.236-0.697c-8.085,6.196-13.206-3.299-16.589-1.154c-3.713,2.355-9.078-4.59-5.8-5.676 c3.859-1.279,4.975-5.758,8.722-6.971c1.431-0.463,1.622-1.817,2.148-2.848C1005.606,354.93,1006.461,362.919,1010.953,359.352z M947.69,349.967c11.415-20.29,46.527-0.474,51.374-0.255c4.003,0.181,0.514,4.589,4.468,4.029c2.283-0.323,1.982,3.007-0.121,3.26 c-5.571,0.671-9.176,5.093-13.974,7.174c-10.463,4.538-8.283,11.6-13.093,8.789c-2.057,0.363-3.728,1.37-4.747-0.891 c-0.422-0.936-1.256-0.486-1.628,0.041c-2.779,3.937-11.908-3.022-19.87-2.622c-1.711,0.086-2.646,1.18-4.045,1.581 C935.726,374.039,944.548,355.552,947.69,349.967z M836.55,928.39c1.307,0.895,2.446,2.036,4.307,3.62 C825.425,932.992,833.983,926.631,836.55,928.39z M808.646,935.645c5.251,0.228,0.783,16.528-3.369,20.077 C805.676,953.04,803.016,935.401,808.646,935.645z M159.912,227.934c0.308,0.489,1.372,1.072,1.695,0.896 c5.201-2.854,1.716,2.764,3.324,3.018c0.103,4.865-2.976,2.67-4.81,2.445C153.712,233.506,156.779,222.971,159.912,227.934z"/> </g> </svg>