<?xml version="1.0" encoding="UTF-8"?>
<svg viewBox="0 0 322.47644 434.9328" xmlns="http://www.w3.org/2000/svg">
 <path d="m142.91 12.851c7.1759 1.6043 13.873-6.4971 21.87-6.7029 10.847-0.27915 24.087 6.0111 44.161-3.4456 4.4548-2.0987 12.658-4.4661 17.729 0.65273 3.7389 3.7741 7.6422 5.8075 11.499 4.1369 9.5514-4.1378 18.959 8.7127 24.716 10.422 2.9901 0.88758 6.0976 4.2395 9.2271 6.4168 4.3789 3.0466 8.8008 9.6862 13.004 13.66 4.6766 4.4218 8.2799 7.0428 11.315 9.0423 5.5105 6.2197-0.66621 7.7858-4.751 15.373-4.517 4.4454-8.9643 9.9199-14.001 20.076l6.5762 43.507 9.7567 32.721-6.966 11.333 34.851 49.082c0.94584 6.9054-0.22623 12.399-5.5813 15.104l-22.304 6.2843c-2.2162 16.904 2.069 21.577 5.5813 27.694l-8.372 6.2843 8.372 11.333-9.7567 6.2843 6.966 23.923c1.3694 8.5766-3.6405 13.922-6.6926 18.283-7.2971 8.9857-10.353 8.6268-21.218 9.2948-22.358 1.2085-36.376-2.7765-60.325-11.367-7.7256 11.554-17.986 18.037-17.809 45.396-19.157 20.054-15.4 30.381-17.873 55.835-10.509 1.5441-9.4772 10.345-78.886-59.92-34.593-35.019-74.457-56.556-93.088-38.34 12.128-34.933 32.216-48.335 33.498-85.979l-8.9264-14.522c-1e-5 0-8.3625-13.122-8.6901-16.024l-7.1938-22.23-9.3093-73.111c2.0127-46.024 32.369-71.452 54.024-87.885 16.703-13.748 37.49-19.347 59.568-23.307 9.5118-1.7064 19.263 0.63603 29.031 0.69499z" fill-rule="evenodd" stroke="#000" stroke-width=".57182"/>
</svg>
