<?xml version="1.0" encoding="UTF-8"?>
<svg viewBox="0 0 128 128" xmlns="http://www.w3.org/2000/svg" xmlns:xlink="http://www.w3.org/1999/xlink">
 <defs>
  <linearGradient id="a">
   <stop stop-color="#ffeed6" offset="0"/>
   <stop stop-color="#ffcd8b" offset="1"/>
  </linearGradient>
  <linearGradient id="h" x1="-211.94" x2="-170.85" y1="57.697" y2="26.983" gradientUnits="userSpaceOnUse">
   <stop stop-color="#664314" offset="0"/>
   <stop stop-color="#a06b08" offset="1"/>
  </linearGradient>
  <linearGradient id="g" x1="-173" x2="-173.02" y1="98.031" y2="61.424" gradientUnits="userSpaceOnUse">
   <stop offset="0"/>
   <stop stop-color="#747474" offset="1"/>
  </linearGradient>
  <linearGradient id="f" x1="-170.22" x2="-171.64" y1="62.272" y2="86.38" gradientUnits="userSpaceOnUse">
   <stop stop-color="#d49c56" offset="0"/>
   <stop stop-color="#d49c56" stop-opacity=".25806" offset="1"/>
  </linearGradient>
  <linearGradient id="e" x1="-167.79" x2="-162.97" y1="64.985" y2="5.3636" gradientUnits="userSpaceOnUse">
   <stop stop-color="#d49c56" offset="0"/>
   <stop stop-color="#d49c56" stop-opacity="0" offset="1"/>
  </linearGradient>
  <linearGradient id="d" x1="-245.52" x2="-170.29" y1="16.796" y2="48.76" gradientUnits="userSpaceOnUse">
   <stop stop-color="#fff" offset="0"/>
   <stop stop-color="#fff" stop-opacity="0" offset="1"/>
  </linearGradient>
  <radialGradient id="c" cx="-164.86" cy="72.644" r="15.009" gradientTransform="matrix(.1038 .081452 -.21402 .27274 -132.2 63.745)" gradientUnits="userSpaceOnUse" xlink:href="#a"/>
  <radialGradient id="b" cx="-165.24" cy="33.695" r="21.607" gradientTransform="matrix(.7193 -.017199 .035132 1.4693 -44.059 -19.6)" gradientUnits="userSpaceOnUse" xlink:href="#a"/>
 </defs>
 <g transform="matrix(1.1403 0 0 1.1403 257.51 9.5835)" fill-rule="evenodd">
  <path d="m-147.34 25.71c1.6025-11.001-4.4764-25.924-21.367-26.248-21.917-0.42056-25.993 15.37-24.882 27.159 1.3535 14.357 43.432 18.42 46.248-0.9104z" fill="url(#h)"/>
  <path d="m-222.67 95.621c2.4491-6.7627 3.5335-19.316 11.964-23.508l39.107-8.3671 40.844 7.7638c7.1871 2.5802 10.584 16.564 14.02 24.487-2.2382 1.6068-4.1673 3.9864-6.829 4.5345h-92.679c-3.0097-1.1168-4.5341-3.1248-6.4286-4.9107z" fill="url(#g)" stroke="#000"/>
  <path d="m-183.12 55.085c0.20847 5.0595-0.99076 7.9754-3.3611 12.264 9.229 16.963 33.15 8.2188 32.526-0.47819l-2.6468-14.464-26.518 2.6786z" fill="url(#c)" stroke="url(#f)"/>
  <path d="m-149.38 27.913c-0.51037 7.997-0.7342 17.748-2.5254 25.745 0 0-8.1443 7.4029-12.69 9.4209s-5.8181 1.7443-10.102-0.06313-14.205-8.8526-14.205-8.8526c-4.2643-17.29-5.7232-35.412 13.258-45.064l5.62 6.6746c2.0794 2.4696 11.209 6.309 14.658 3.0161 2.7221-2.5989 4.3842 6.9312 5.9857 9.1234z" fill="url(#b)" stroke="url(#e)"/>
  <path d="m-189.89 29.284c-0.7068 8.0159 0.46446 15.673 2.2396 23.852 4.8924 3.9526 8.6008 9.1673 18.813 7.0807 3.4966-0.79687 2.2001-2.4683 4.2084-3.4778-12.072 3.5866-14.041 1.0504-20.264-6.2528l-4.1078-23.873-0.88934 2.6714z" fill="url(#d)"/>
 </g>
</svg>
