<?xml version='1.0' encoding='utf-8'?>
<svg xmlns="http://www.w3.org/2000/svg" version="1.1" width="600px" height="976px" viewBox="0 0 600 976"> <g id="layer1"> <g style="fill:rgb(30,18,17); fill-opacity:1.0; stroke-linejoin: miter"> <path d="M142.32108,431.3122L135.56052,449.33957L92.42889,474.4736Q87.97081,487.35846,85.13611,497.76727Q76.18862,528.2389,79.59814,568.782Q82.85081,608.49963,94.52331,608.4263L252.49548,606.69617Q257.5715,601.6233,259.73676,593.29517Q265.072,568.8335,260.88635,530.056Q258.1817,506.1417,244.10228,472.4769L198.41669,449.51617L189.59726,431.2525L142.38367,431.3121"/> </g> <g style="fill:rgb(137,203,229); fill-opacity:1.0; stroke-linejoin: miter"> <path d="M145.86012,447.29865L143.61295,467.94073L158.67186,511.83774Q161.86491,551.3385,161.79236,564.3831Q161.94226,579.33307,158.94702,588.79535Q156.96196,595.8849,150.38142,607.8144L192.83817,607.3494L192.84018,607.34955Q185.08731,577.39557,183.88237,557.4777Q182.82684,543.7164,183.81857,524.35077Q184.23918,516.20056,185.03978,506.92618Q185.56718,500.26962,187.89949,478.59702Q188.2672,474.86417,188.24516,473.0842Q188.19356,471.63434,187.94737,471.19693Q186.06987,469.64316,179.7527,452.08072L182.87634,448.75577L145.88295,447.29956L145.86012,447.29865 Z"/> </g> <g style="fill:rgb(0,0,0); fill-opacity:1.0; stroke-linejoin: miter"> <path d="M162.18639,348.8739Q151.38449,348.9649,142.8823,355.5739Q133.37964,363.0629,130.17468,373.54724Q127.73304,382.00742,130.91174,393.2949Q134.91786,406.61725,142.47849,417.28574L190.51059,415.4023L190.55472,415.28683Q195.30995,394.95053,196.29991,386.58627Q197.47887,377.68155,195.72704,373.8444Q194.40685,370.3226,189.16399,368.43005Q188.86632,359.80112,182.1411,355.15787Q173.56645,349.02655,162.19408,348.8739"/> </g> <g style="fill:rgb(255,205,166); fill-opacity:1.0; stroke-linejoin: miter"> <path d="M175.43245,372.34232Q171.40565,371.87967,148.95114,375.79553Q144.1496,376.5408,142.49644,377.9927Q140.96577,379.24277,140.54518,381.99466Q140.34953,383.15643,140.29048,384.8082Q140.41585,394.18167,140.0367,396.0053Q139.6627,399.72168,137.69728,406.29938Q131.32655,403.9582,131.17238,410.64835Q130.77733,418.22046,133.02467,422.69205Q134.72795,426.42557,140.43353,425.98502L143.40579,433.71686L145.9954,447.50937L146.06033,453.20554L161.47055,466.983L165.64148,484.4742L173.30196,465.79004L180.1516,459.9214L179.77959,451.77347L188.37961,442.47098Q188.07831,426.5252,189.31216,425.14505Q189.72855,424.22067,190.41302,423.939L194.4643,423.90305Q195.75989,423.56873,196.5463,422.44412Q198.63159,419.3268,199.37897,411.88873Q200.08429,403.43295,197.21411,401.80307Q191.80414,400.19376,189.8989,405.9071Q189.51642,399.77393,188.80756,397.3568Q188.72394,396.27975,186.07446,391.21448Q185.60391,389.9885,185.43723,389.04483Q185.24078,388.11752,185.19147,386.67645Q185.35706,380.51584,185.16766,379.65164Q184.97585,377.41208,184.04381,375.75443Q182.21681,372.33295,175.47527,372.34293"/> </g> <g style="fill:rgb(255,56,0); fill-opacity:0.1254902; stroke-linejoin: miter"> <path d="M188.58795,430.77112Q180.67151,440.1484,176.39929,443.27014Q171.48607,447.0214,166.96815,447.36935Q157.85262,448.09677,143.55878,434.32047L168.66966,460.98767L188.52612,430.86584"/> </g> <g style="fill:rgb(255,56,0); fill-opacity:0.44313726; stroke-linejoin: miter"> <path d="M177.55463,425.93896Q170.07796,426.2407,166.26225,426.73114Q161.92168,427.2723,156.61623,428.59515L177.5242,425.94287"/> </g> <g style="fill:rgb(255,56,0); fill-opacity:0.30588236; stroke-linejoin: miter"> <path d="M172.89302,416.6844L166.6605,419.8036L160.3272,419.07434L165.8886,421.9386Q166.1053,422.18402,166.21059,422.2313Q166.39403,422.3312,166.64488,422.2762Q167.23503,422.1647,168.61232,420.91025Q169.8343,419.81573,172.87575,416.70233"/> </g> <g style="fill:rgb(0,0,0); fill-opacity:1.0; stroke-linejoin: miter"> <path d="M162.61926,396.5545L137.3351,397.6725Q139.1649,407.34454,141.93294,410.35712Q144.90761,413.93347,150.85304,413.75192Q157.3907,413.26807,160.16751,409.3179Q162.65787,406.03912,162.61948,396.55917"/> </g> <g style="fill:rgb(0,0,0); fill-opacity:1.0; stroke-linejoin: miter"> <path d="M190.43866,395.29724L165.15894,396.4385Q166.90591,405.70544,169.5632,408.8849Q172.5484,412.67386,178.65591,412.49506Q185.3569,412.025,188.16693,407.8107Q190.47552,404.41956,190.439,395.33145"/> </g> <g style="fill:rgb(0,0,0); fill-opacity:1.0; stroke-linejoin: miter"> <path d="M152.37125,395.85986Q149.83469,395.78143,143.03087,398.0595Q142.38582,398.37064,142.19557,399.06903Q142.0367,399.77774,142.46681,400.35776Q143.0429,401.03632,143.88573,400.92828L147.51729,399.83115Q148.69954,399.4894,149.58344,399.28287Q151.51129,398.82898,152.58444,398.8901Q153.34961,398.92972,153.90314,399.25714Q154.20389,399.4303,154.52689,399.73495L155.6015,400.8633Q155.97427,401.14084,156.47516,401.15753Q157.38535,401.14655,157.8494,400.32504Q158.23373,399.47525,157.69562,398.7229Q156.42209,397.1542,155.26614,396.55573Q154.01935,395.87503,152.38205,395.85995"/> </g> <g style="fill:rgb(0,0,0); fill-opacity:1.0; stroke-linejoin: miter"> <path d="M175.59805,394.12952Q178.1358,394.12268,184.87265,396.59177Q185.5087,396.921,185.67917,397.62445Q185.81796,398.33737,185.37167,398.905Q184.77667,399.56705,183.9372,399.43527L180.33804,398.23615Q179.16592,397.8612,178.28818,397.62976Q176.37393,397.1217,175.2995,397.15253Q174.53351,397.17056,173.97095,397.4822Q173.6654,397.6468,173.33395,397.94226L172.22794,399.03986Q171.8475,399.30673,171.34634,399.3093Q170.43683,399.27264,169.99612,398.4384Q169.63593,397.57806,170.19504,396.84122Q171.5123,395.30908,172.6847,394.74344Q173.9502,394.09818,175.58728,394.1293"/> </g> <g style="fill:rgb(210,201,201); fill-opacity:0.07058824; stroke-linejoin: miter"> <path d="M231.7293,521.8969L230.46918,606.9372L241.78636,606.8133L231.73753,521.9665L231.7293,521.8969 Z M106.178055,528.68567L108.692764,608.271L116.705025,608.1832L106.18746,528.7532L106.178055,528.68567 Z"/> </g> <g style="fill:rgb(0,0,0); fill-opacity:0.18431373; stroke-linejoin: miter"> <path d="M173.68309,467.2338L169.35722,480.23453L169.35722,480.23453L178.36723,480.22302L176.14046,470.52414L173.68437,467.2355L173.68309,467.2338 Z M154.07321,465.35733L153.73288,480.23895L163.01675,481.0459L163.01675,481.0459L159.91785,470.11224L154.08636,465.36804L154.07321,465.35733 Z"/> </g> <g style="fill:rgb(0,0,0); fill-opacity:1.0; stroke-linejoin: miter"> <path d="M167.96198,397.06094L158.07211,397.58423L158.1424,398.8889L167.97208,398.3674Q168.03012,398.36487,168.07306,398.35657Q168.60193,398.21613,168.60529,397.66632Q168.52048,397.12277,167.97995,397.06137"/> </g> <g style="fill:rgb(0,0,0); fill-opacity:0.0627451; stroke-linejoin: miter"> <path d="M165.88086,483.4296L165.86899,483.4296Q165.2532,483.5025,165.22092,484.10223L170.05399,607.59906L171.36057,607.5848L166.52754,484.07916Q166.45305,483.47327,165.88086,483.4296 Z"/> </g> </g> </svg>